<svg viewBox="0 0 96 96" xmlns="http://www.w3.org/2000/svg" xmlns:xlink="http://www.w3.org/1999/xlink" id="Icons_Record" overflow="hidden"><path d="M48 80 48 76C63.4 76 76 63.4 76 48L80 48C80 65.6 65.6 80 48 80ZM36 48C36 41.4 41.4 36 48 36 54.6 36 60 41.4 60 48 60 54.6 54.6 60 48 60 41.4 60 36 54.6 36 48ZM30 48 26 48C26 35.9 35.9 26 48 26L48 30C38.1 30 30 38.1 30 48ZM20 48 16 48C16 30.4 30.4 16 48 16L48 20C32.6 20 20 32.6 20 48ZM66 48 70 48C70 60.1 60.1 70 48 70L48 66C57.9 66 66 57.9 66 48ZM48 10C27 10 10 27 10 48 10 69 27 86 48 86 69 86 86 69 86 48 86 27 69 10 48 10Z" stroke="#4472C4" fill="#4472C4"/></svg>